<svg width="100" height="100" viewBox="0 0 100 100" fill="none" xmlns="http://www.w3.org/2000/svg">
<circle cx="50" cy="50" r="50" fill="white"/>
<path fill-rule="evenodd" clip-rule="evenodd" d="M37.4043 60.2431C37.4495 61.3153 37.4991 62.4397 37.5507 63.5794C37.8495 70.2218 38.2059 77.4075 38.2322 77.9364C38.2416 79.2345 38.7727 80.4109 39.6264 81.2643C40.4875 82.1252 41.6773 82.6576 42.9916 82.6576H57.6861C59.0004 82.6576 60.1901 82.1252 61.0513 81.2643C61.8871 80.4288 62.4137 79.2841 62.444 78.0163C62.5959 77.0379 63.5414 69.9816 60.6284 62.195C59.1076 58.1293 56.5401 53.8641 52.2676 50.1591C54.6729 47.505 57.6504 45.6245 60.7058 44.2848C60.7431 45.2479 60.7723 46.0919 60.7917 46.7687C60.9689 52.9938 62.9031 56.7921 65.3411 59.1172C70.0846 63.6404 76.949 62.6287 78.0558 62.4297C79.3145 62.3945 80.4521 61.8695 81.284 61.0379C82.1451 60.1771 82.6777 58.9877 82.6777 57.6738V42.9838C82.6777 41.6699 82.1451 40.4806 81.284 39.6197C80.4268 38.7633 79.245 38.2314 77.9391 38.2259C77.4939 38.2135 70.6534 38.0612 63.2734 40.4146C63.2282 39.3423 63.1786 38.2185 63.127 37.0782C62.8282 30.4358 62.4718 23.2501 62.4455 22.7212C62.4361 21.4232 61.905 20.2472 61.0513 19.3938C60.1901 18.5324 59.0004 18 57.6861 18H42.9916C41.6773 18 40.4875 18.5324 39.6264 19.3938C38.7906 20.2289 38.2639 21.374 38.2337 22.6413C38.0818 23.6198 37.1363 30.6765 40.0493 38.4626C41.5701 42.5283 44.1376 46.7935 48.4101 50.4985C46.0053 53.1526 43.0273 55.0331 39.9718 56.3728C39.9346 55.4097 39.9053 54.5657 39.8865 53.8889C39.7093 47.6638 37.7746 43.8655 35.3366 41.5404C30.5936 37.0172 23.7287 38.0289 22.6219 38.2279C21.3632 38.2631 20.2256 38.7886 19.3942 39.6197C18.5326 40.4806 18 41.6699 18 42.9838V57.6738C18 58.9877 18.5326 60.1771 19.3942 61.0379C20.2509 61.8948 21.4327 62.4263 22.7385 62.4317C23.1837 62.4446 30.0243 62.5964 37.4043 60.2431ZM63.391 43.2418C63.4456 44.6088 63.4888 45.7957 63.5141 46.6913C63.6635 51.9389 65.1659 55.1869 67.2212 57.1469C71.3984 61.1302 77.6274 59.7399 77.6274 59.7399C77.7232 59.7191 77.8205 59.7087 77.9183 59.7087C78.4802 59.7087 78.9894 59.4809 79.3577 59.1127C79.726 58.7446 79.9538 58.2355 79.9538 57.6738V42.9838C79.9538 42.4221 79.726 41.9131 79.3577 41.5449C78.9894 41.1767 78.4802 40.949 77.9183 40.949C77.9024 40.949 77.8865 40.9485 77.8707 40.948C77.8707 40.948 70.8098 40.7068 63.391 43.2418ZM60.5882 41.3806C60.5336 40.0628 60.4711 38.6447 60.406 37.2008C60.0958 30.3058 59.7236 22.8259 59.7236 22.8259C59.7221 22.8031 59.7216 22.7807 59.7216 22.7579C59.7216 22.1962 59.4938 21.6871 59.1255 21.319C58.7572 20.9508 58.248 20.7231 57.6861 20.7231H42.9916C42.4297 20.7231 41.9205 20.9508 41.5522 21.319C41.1839 21.6871 40.9561 22.1962 40.9561 22.7579C40.9561 22.8373 40.9491 22.9162 40.9352 22.9941C40.9352 22.9941 39.7406 29.8637 42.6004 37.5089C43.9788 41.1941 46.3051 45.0589 50.1701 48.4195C52.825 45.4603 56.1088 43.345 59.4913 41.8441C59.8556 41.6823 60.2209 41.528 60.5882 41.3806ZM40.0895 59.277C40.1446 60.5953 40.2066 62.0134 40.2716 63.4568C40.5818 70.3518 40.9546 77.8318 40.9546 77.8318C40.9556 77.8546 40.9561 77.8769 40.9561 77.8997C40.9561 78.4614 41.1839 78.9705 41.5522 79.3387C41.9205 79.7068 42.4297 79.9346 42.9916 79.9346H57.6861C58.248 79.9346 58.7572 79.7068 59.1255 79.3387C59.4938 78.9705 59.7216 78.4614 59.7216 77.8997C59.7216 77.8203 59.7285 77.7414 59.7424 77.6635C59.7424 77.6635 60.9371 70.7939 58.0772 63.1487C56.6989 59.4635 54.3726 55.5988 50.5076 52.2381C47.8527 55.1979 44.5689 57.3126 41.1864 58.8135C40.8221 58.9753 40.4568 59.1296 40.0895 59.277ZM37.2867 57.4158C37.2321 56.0488 37.1889 54.8619 37.1636 53.9663C37.0142 48.7187 35.5118 45.4707 33.4564 43.5108C29.2793 39.5274 23.0502 40.9177 23.0502 40.9177C22.9544 40.9385 22.8572 40.949 22.7594 40.949C22.1975 40.949 21.6883 41.1767 21.32 41.5449C20.9517 41.9131 20.7239 42.4221 20.7239 42.9838V57.6738C20.7239 58.2355 20.9517 58.7446 21.32 59.1127C21.6883 59.4809 22.1975 59.7087 22.7594 59.7087C22.7753 59.7087 22.7911 59.7092 22.807 59.7097C22.807 59.7097 29.8679 59.9508 37.2867 57.4158Z" fill="#187459"/>
<path fill-rule="evenodd" clip-rule="evenodd" d="M65.3409 59.1172C62.9029 56.7921 60.9687 52.9938 60.7915 46.7687C60.7721 46.0919 60.7428 45.2479 60.7056 44.2848C60.6629 43.1768 60.6207 42.1671 60.588 41.3807C60.5334 40.0628 60.4708 38.6447 60.4058 37.2008C60.0956 30.3058 59.7234 22.8259 59.7234 22.8259C59.7219 22.8031 62.4358 21.4232 62.4453 22.7212C62.4716 23.2501 62.8279 30.4358 63.1267 37.0783C63.1784 38.2185 63.228 39.3423 63.2732 40.4146C63.3134 41.3534 63.3431 42.0401 63.3908 43.2418C63.4454 44.6088 63.4886 45.7957 63.5139 46.6913C63.6633 51.9389 65.1657 55.187 67.221 57.1469C68.1894 58.0703 66.6165 60.3334 65.3409 59.1172ZM35.3363 41.5404C37.7743 43.8655 39.7091 47.6638 39.8863 53.8889C39.9051 54.5657 39.9344 55.4097 39.9716 56.3728C40.0079 57.3106 40.051 58.3586 40.0893 59.277C40.1443 60.5954 40.2064 62.0134 40.2714 63.4568C40.5816 70.3518 40.9544 77.8318 40.9544 77.8318C40.9554 77.8546 38.2414 79.2345 38.232 77.9365C38.2057 77.4075 37.8493 70.2218 37.5505 63.5794C37.4989 62.4397 37.4492 61.3153 37.4041 60.2431C37.3663 59.3549 37.3301 58.5079 37.2864 57.4158C37.2318 56.0488 37.1887 54.862 37.1633 53.9663C37.0139 48.7187 35.5115 45.4707 33.4562 43.5108C32.6045 42.6985 33.9094 40.1799 35.3363 41.5404Z" fill="url(#paint0_linear_63_2272)"/>
<path fill-rule="evenodd" clip-rule="evenodd" d="M77.8704 40.948C77.8704 40.948 70.8095 40.7068 63.3907 43.2418C62.4189 43.5738 61.3821 43.9881 60.7055 44.2848C57.6501 45.6245 54.6726 47.505 52.2673 50.1591C51.4985 51.0076 51.0448 51.6387 50.5073 52.2381C47.8524 55.1979 44.5686 57.3126 41.1861 58.8135C40.8218 58.9753 40.4565 59.1296 40.0892 59.277C39.303 59.593 38.8325 59.7875 37.404 60.243C30.024 62.5964 23.1835 62.4446 22.7383 62.4317C21.4324 62.4262 22.1972 59.7087 22.7591 59.7087C22.775 59.7087 22.7909 59.7091 22.8067 59.7096C22.8067 59.7096 29.8676 59.9508 37.2864 57.4158C38.2165 57.0982 39.372 56.6358 39.9716 56.3728C43.027 55.0331 46.005 53.1526 48.4098 50.4985C49.1568 49.6743 49.7435 48.8948 50.1698 48.4195C52.8247 45.4603 56.1085 43.345 59.491 41.8441C59.8553 41.6823 60.2206 41.528 60.5879 41.3806C61.5324 41.0011 62.7946 40.5669 63.2731 40.4146C70.6531 38.0612 77.4937 38.2135 77.9389 38.2259C79.2447 38.2314 77.8863 40.9485 77.8704 40.948Z" fill="url(#paint1_linear_63_2272)"/>
<path fill-rule="evenodd" clip-rule="evenodd" d="M41.552 21.3189C41.1837 21.6871 40.9559 22.1961 40.9559 22.7578C40.9559 22.8372 40.949 22.9161 40.9351 22.994C40.9351 22.994 39.7404 29.8637 42.6003 37.5089C43.9786 41.194 46.3049 45.0588 50.1699 48.4194C51.371 49.4644 51.8604 49.8068 52.2674 50.159C56.5399 53.864 59.1074 58.1292 60.6282 62.195C63.5412 69.9816 62.5957 77.0378 62.4438 78.0163C62.4135 79.284 61.8869 80.4287 61.0511 81.2643C60.19 82.1251 58.757 79.7068 59.1253 79.3386C59.4936 78.9704 59.7214 78.4613 59.7214 77.8997C59.7214 77.8203 59.7284 77.7414 59.7423 77.6635C59.7423 77.6635 60.9369 70.7938 58.077 63.1486C56.6987 59.4635 54.3724 55.5987 50.5074 52.238C50.2538 52.0172 48.7037 50.753 48.4099 50.4984C44.1374 46.7934 41.5699 42.5282 40.0491 38.4625C37.1361 30.6764 38.0816 23.6197 38.2335 22.6412C38.2638 21.374 38.7904 20.2288 39.6262 19.3937C40.4874 18.5323 41.9203 20.9507 41.552 21.3189Z" fill="url(#paint2_linear_63_2272)"/>
<defs>
<linearGradient id="paint0_linear_63_2272" x1="56.4129" y1="57.3402" x2="46.0879" y2="43.2943" gradientUnits="userSpaceOnUse">
<stop stop-color="#187459"/>
<stop offset="0.5" stop-color="#005C40"/>
<stop offset="0.75" stop-color="#126E53"/>
<stop offset="1" stop-color="#187459"/>
</linearGradient>
<linearGradient id="paint1_linear_63_2272" x1="23.2462" y1="55.7755" x2="78.5043" y2="45.8066" gradientUnits="userSpaceOnUse">
<stop stop-color="#187459"/>
<stop offset="0.25" stop-color="#188C6C"/>
<stop offset="0.5" stop-color="#0C684D"/>
<stop offset="0.75" stop-color="#188C6C"/>
<stop offset="1" stop-color="#187459"/>
</linearGradient>
<linearGradient id="paint2_linear_63_2272" x1="65.0741" y1="66.8366" x2="35.3655" y2="34.7966" gradientUnits="userSpaceOnUse">
<stop stop-color="#187459"/>
<stop offset="0.54" stop-color="#178C6C"/>
<stop offset="1" stop-color="#187459"/>
</linearGradient>
</defs>
</svg>
